<?xml version="1.0" encoding="utf-8"?>
<!-- Generator: Adobe Illustrator 27.5.0, SVG Export Plug-In . SVG Version: 6.00 Build 0)  -->
<svg version="1.1" xmlns="http://www.w3.org/2000/svg" xmlns:xlink="http://www.w3.org/1999/xlink" x="0px" y="0px"
	 viewBox="0 0 2475 1650" style="enable-background:new 0 0 2475 1650;" xml:space="preserve">
<g id="Background">
	<rect style="fill:#FFFFFF;" width="2475" height="1650"/>
</g>
<g id="Illustration">
	<g>
		<linearGradient id="SVGID_1_" gradientUnits="userSpaceOnUse" x1="205.9693" y1="783.72" x2="2097.7256" y2="783.72">
			<stop  offset="0" style="stop-color:#DAE3FE"/>
			<stop  offset="1" style="stop-color:#E9EFFD"/>
		</linearGradient>
		<path style="fill:url(#SVGID_1_);" d="M1052.551,160.152C945.46,186.379,847.309,266.439,708.037,446.026
			S546.775,592.627,396.509,632.943c-150.267,40.315-300.534,223.568-76.966,461.795s441.278,208.047,873.98,231.052
			c369.936,19.668,293.981,128.421,675.145,80.776c381.164-47.646,210.177-957.347,34.173-1030.176
			c-212.572-87.961-388.494,58.641-513.106-54.976S1232.138,116.172,1052.551,160.152z"/>
		<g>
			<path style="fill:#BDD0FB;" d="M367.712,413.597c-6.28-5.314-15.957-1.763-17.362,6.343
				c-21.504,124.075-117.156,851.231,549.073,1063.557C899.423,1483.497,1085.627,1020.994,367.712,413.597z"/>
			<path style="fill:#DCE5FE;" d="M410.698,532.111c0,0,3.438,14.662,9.887,40.243c3.239,12.785,7.207,28.3,11.901,46.061
				c4.669,17.767,10.075,37.776,16.095,59.57c3.046,10.887,6.219,22.227,9.504,33.964c3.373,11.712,6.86,23.82,10.444,36.267
				c7.288,24.86,15.046,51.055,23.441,78.038c8.299,27.014,17.236,54.813,26.469,83.01c4.717,14.064,9.471,28.24,14.244,42.471
				c4.946,14.171,9.753,28.454,14.849,42.634c5.099,14.179,10.066,28.405,15.349,42.452c2.605,7.037,5.205,14.06,7.798,21.062
				c2.604,6.998,5.327,13.927,7.969,20.854c2.664,6.919,5.317,13.811,7.958,20.668c2.726,6.823,5.439,13.612,8.135,20.36
				c5.312,13.529,10.878,26.761,16.314,39.791c10.894,26.051,21.933,51.014,32.797,74.495c10.888,23.468,21.586,45.464,31.97,65.499
				c5.026,10.106,10.256,19.566,15.161,28.6c2.452,4.517,4.841,8.918,7.164,13.197c2.373,4.249,4.799,8.305,7.084,12.274
				c4.643,7.893,8.814,15.388,12.981,22.125c4.204,6.712,8.066,12.878,11.554,18.447c1.749,2.78,3.405,5.412,4.963,7.888
				c1.646,2.416,3.188,4.681,4.623,6.789c2.87,4.215,5.311,7.8,7.291,10.707c3.958,5.814,6.069,8.914,6.069,8.914l0.094,0.138
				c1.218,1.789,0.755,4.226-1.034,5.444c-1.789,1.218-4.226,0.755-5.444-1.034l-0.01-0.015c0,0-2.118-3.141-6.089-9.031
				c-1.985-2.945-4.433-6.577-7.312-10.847c-1.439-2.135-2.985-4.429-4.635-6.877c-1.559-2.504-3.216-5.164-4.967-7.976
				c-3.489-5.63-7.352-11.862-11.558-18.648c-4.166-6.808-8.329-14.367-12.965-22.335c-2.281-4.005-4.704-8.101-7.071-12.386
				c-2.315-4.313-4.697-8.749-7.141-13.303c-4.889-9.107-10.103-18.644-15.104-28.817c-10.338-20.178-20.975-42.312-31.79-65.912
				c-10.79-23.612-21.744-48.701-32.544-74.868c-5.388-13.089-10.906-26.379-16.166-39.961c-2.67-6.775-5.357-13.591-8.057-20.442
				c-2.613-6.883-5.24-13.801-7.876-20.746c-2.615-6.953-5.31-13.908-7.886-20.93c-2.564-7.026-5.136-14.074-7.712-21.135
				c-5.226-14.096-10.134-28.367-15.174-42.591c-5.036-14.225-9.783-28.549-14.669-42.763c-4.712-14.271-9.406-28.487-14.063-42.59
				c-9.111-28.272-17.927-56.143-26.108-83.221c-8.277-27.049-15.919-53.303-23.096-78.217
				c-3.529-12.474-6.962-24.608-10.283-36.345c-3.232-11.761-6.354-23.125-9.352-34.035
				c-23.731-87.346-37.234-146.184-37.234-146.184c-0.207-0.893,0.35-1.785,1.243-1.992
				C409.6,530.666,410.491,531.218,410.698,532.111z"/>
		</g>
		<g>
			<path style="fill:#91B3FA;" d="M197.61,845.226c-1.124-6.689,7.485-10.446,11.603-5.056
				c39.801,52.112,148.446,185.489,254.462,237.02c172.619,83.906,337.732,265.991,304.829,407.425
				C768.503,1484.615,320.037,1574.013,197.61,845.226z"/>
			<path style="fill:#DCE5FE;" d="M244.446,923.492c0,0,0.332,0.591,0.975,1.735c0.677,1.103,1.682,2.739,2.993,4.873
				c2.664,4.326,6.734,10.583,11.899,18.55c5.211,7.94,11.567,17.563,19.046,28.476c7.418,10.953,16.047,23.133,25.404,36.454
				c9.465,13.246,19.754,27.571,30.948,42.492c11.102,14.989,23.166,30.525,35.66,46.579c12.602,15.97,25.705,32.41,39.423,48.78
				c3.423,4.097,6.86,8.21,10.308,12.336c3.503,4.078,7.017,8.167,10.538,12.265c6.986,8.244,14.247,16.301,21.424,24.432
				c7.166,8.141,14.621,16.02,21.841,24.055c7.396,7.872,14.763,15.712,22.071,23.491c7.482,7.61,14.775,15.292,22.217,22.642
				c3.726,3.67,7.43,7.318,11.107,10.94c1.839,1.811,3.671,3.616,5.496,5.413c1.86,1.761,3.712,3.515,5.557,5.261
				c14.714,14.022,29.262,27.232,43.284,39.495c3.527,3.041,7.006,6.041,10.434,8.996c1.714,1.478,3.414,2.944,5.102,4.399
				c1.724,1.41,3.434,2.809,5.129,4.196c6.818,5.503,13.305,10.955,19.717,15.949c6.455,4.941,12.641,9.676,18.525,14.179
				c5.943,4.422,11.692,8.465,17.037,12.348c2.684,1.926,5.281,3.791,7.789,5.59c2.567,1.712,5.042,3.362,7.419,4.947
				c4.757,3.172,9.127,6.086,13.073,8.718c7.995,5.103,14.41,8.905,18.718,11.608c4.33,2.668,6.64,4.09,6.64,4.09l0.036,0.022
				c0.46,0.284,0.604,0.887,0.32,1.347c-0.278,0.451-0.865,0.597-1.322,0.335c0,0-2.358-1.355-6.78-3.896
				c-4.396-2.583-10.972-6.172-19.101-11.135c-4.021-2.552-8.474-5.377-13.321-8.452c-2.424-1.539-4.948-3.14-7.565-4.801
				c-2.558-1.749-5.208-3.561-7.946-5.434c-5.448-3.785-11.339-7.688-17.38-12.036c-5.973-4.442-12.254-9.112-18.808-13.986
				c-6.512-4.929-13.101-10.311-20.029-15.747c-1.723-1.37-3.461-2.752-5.213-4.145c-1.715-1.437-3.443-2.886-5.185-4.346
				c-3.484-2.921-7.021-5.885-10.606-8.891c-14.306-12.067-28.956-25.302-43.794-39.319c-1.861-1.746-3.73-3.499-5.606-5.259
				c-1.841-1.796-3.688-3.6-5.543-5.409c-3.709-3.62-7.444-7.266-11.203-10.934c-7.506-7.347-14.861-15.023-22.408-22.629
				c-7.372-7.774-14.802-15.61-22.262-23.477c-3.65-4.007-7.307-8.022-10.968-12.041c-3.654-4.025-7.33-8.037-10.895-12.148
				c-7.169-8.187-14.422-16.3-21.397-24.596c-3.515-4.124-7.023-8.24-10.521-12.344c-3.441-4.151-6.872-8.29-10.289-12.413
				c-13.692-16.472-26.765-33.007-39.336-49.067c-12.423-16.176-24.262-31.94-35.229-47.078
				c-11.038-15.085-21.177-29.562-30.501-42.945c-18.513-26.864-33.224-49.731-43.335-65.852
				c-5.03-8.079-8.895-14.479-11.472-18.886c-1.298-2.171-2.288-3.965-2.953-5.119c-0.615-1.167-0.933-1.768-0.933-1.768
				c-0.252-0.478-0.069-1.069,0.409-1.32c0.469-0.248,1.049-0.075,1.307,0.384L244.446,923.492z"/>
		</g>
		<g>
			<path style="fill:#BDD0FB;" d="M796.187,1503.999c0,0-44.386-71.64-160.814-101.902
				c-108.026-28.078-367.736-87.241-457.696-151.818c-3.985-2.861-9.048,1.673-6.595,5.922
				c26.308,45.573,101.168,154.534,246.152,221.154C604.197,1563.265,796.187,1503.999,796.187,1503.999z"/>
			<path style="fill:#DCE5FE;" d="M252.186,1315.634c0,0,1.383,1.687,4.211,4.622c1.408,1.475,3.159,3.277,5.315,5.302
				c2.105,2.072,4.6,4.374,7.434,6.908c2.763,2.607,6.079,5.214,9.564,8.177c3.512,2.934,7.522,5.854,11.681,9.108
				c4.294,3.087,8.901,6.316,13.757,9.705c2.484,1.615,5.032,3.272,7.641,4.969c2.623,1.672,5.228,3.499,8.067,5.09
				c11.151,6.675,23.41,13.61,36.821,20.066c6.755,3.125,13.543,6.642,20.806,9.541c7.225,2.973,14.462,6.346,22.153,8.969
				c15.169,5.773,31.136,10.947,47.513,15.65c8.24,2.159,16.545,4.335,24.883,6.52c8.448,1.991,16.929,3.989,25.41,5.988
				c8.484,1.895,16.968,3.789,25.418,5.677c8.474,1.811,16.914,3.615,25.288,5.404c16.762,3.529,33.296,6.84,49.318,9.958
				c16.029,3.135,31.524,6.166,46.217,9.041c14.703,2.884,28.615,5.579,41.423,8.345c12.825,2.65,24.487,5.635,34.789,8.384
				c5.147,1.397,9.913,2.927,14.342,4.221c4.39,1.453,8.39,2.894,12.015,4.138c7.141,2.837,12.708,5.158,16.339,7.123
				c3.677,1.842,5.638,2.825,5.638,2.825c0.484,0.242,0.68,0.831,0.437,1.315c-0.235,0.469-0.795,0.667-1.27,0.458l-0.072-0.032
				c0,0-1.98-0.874-5.693-2.513c-3.644-1.779-9.283-3.729-16.401-6.28c-3.628-1.102-7.621-2.384-12.003-3.665
				c-4.435-1.126-9.189-2.47-14.337-3.674c-10.297-2.419-21.997-4.789-34.813-7.227c-12.798-2.492-26.743-4.899-41.489-7.48
				c-14.757-2.582-30.32-5.305-46.419-8.122c-16.079-2.979-32.682-6.149-49.524-9.536c-8.415-1.731-16.893-3.468-25.391-5.325
				c-8.492-1.889-17.018-3.784-25.543-5.68c-8.483-1.991-16.966-3.981-25.415-5.964c-8.485-2.193-16.839-4.55-25.178-6.796
				c-16.545-4.907-32.709-10.207-47.951-16.398c-7.735-2.797-15.021-6.345-22.281-9.487c-7.31-3.04-14.1-6.804-20.843-10.16
				c-13.385-6.924-25.647-14.217-36.635-21.431c-2.804-1.712-5.377-3.659-7.964-5.446c-2.57-1.81-5.081-3.579-7.529-5.303
				c-4.798-3.584-9.237-7.135-13.418-10.441c-4.037-3.495-7.919-6.632-11.309-9.765c-3.364-3.163-6.557-5.943-9.211-8.708
				c-2.711-2.7-5.134-5.104-7.093-7.343c-2.026-2.171-3.664-4.096-4.977-5.668c-2.643-3.132-3.912-4.908-3.912-4.908
				c-0.04-0.053-0.03-0.13,0.023-0.17C252.07,1315.575,252.145,1315.586,252.186,1315.634z"/>
		</g>
		<g>
			<path style="fill:#BDD0FB;" d="M1649.01,141.34c57.364,90.765,369.617,632.599-86.199,1016.943
				c0,0-297.394-303.791,70.451-1016.285C1636.48,135.765,1645.262,135.41,1649.01,141.34z"/>
			<path style="fill:#DCE5FE;" d="M1641.032,248.89c0,0,8.548,50.765,18.334,127.324c2.455,19.138,4.975,39.889,7.48,61.856
				c2.47,21.971,5.01,45.149,7.309,69.161c2.385,24.003,4.527,48.839,6.568,74.087c0.93,12.631,1.868,25.363,2.809,38.145
				c0.785,12.793,1.716,25.628,2.387,38.479c0.668,12.851,1.454,25.697,1.933,38.509c0.273,6.404,0.544,12.796,0.816,19.169
				c0.205,6.376,0.409,12.733,0.612,19.065c0.187,6.333,0.374,12.64,0.559,18.916c0.107,6.279,0.213,12.526,0.318,18.736
				c0.285,12.418,0.272,24.691,0.294,36.763c0.024,24.143-0.425,47.487-1.227,69.615c-0.826,22.127-1.989,43.041-3.555,62.318
				c-0.623,9.649-1.621,18.868-2.504,27.641c-0.441,4.387-0.872,8.661-1.29,12.815c-0.468,4.15-1.042,8.17-1.533,12.071
				c-1.055,7.794-1.87,15.111-2.933,21.838c-1.102,6.722-2.114,12.897-3.027,18.473c-0.463,2.788-0.902,5.426-1.314,7.909
				c-0.502,2.469-0.973,4.782-1.41,6.936c-0.876,4.306-1.622,7.969-2.226,10.939c-1.209,5.94-1.854,9.108-1.854,9.108
				c-0.432,2.12-2.5,3.49-4.621,3.058c-2.12-0.432-3.49-2.5-3.058-4.621l0.004-0.021l0.034-0.163c0,0,0.654-3.128,1.88-8.993
				c0.614-2.933,1.37-6.55,2.26-10.802c0.445-2.126,0.923-4.411,1.433-6.849c0.422-2.457,0.87-5.068,1.344-7.826
				c0.936-5.52,1.972-11.632,3.1-18.286c1.091-6.661,1.939-13.922,3.028-21.649c0.509-3.869,1.1-7.854,1.588-11.972
				c0.438-4.126,0.888-8.37,1.35-12.726c0.925-8.712,1.968-17.866,2.64-27.462c1.663-19.161,2.935-39.971,3.879-62.004
				c0.92-22.035,1.496-45.295,1.604-69.367c0.044-12.036,0.124-24.273-0.092-36.662c-0.071-6.195-0.143-12.427-0.215-18.69
				c-0.151-6.263-0.302-12.557-0.455-18.876c-0.168-6.319-0.337-12.663-0.506-19.026c-0.236-6.362-0.472-12.742-0.709-19.135
				c-0.408-12.788-1.123-25.615-1.719-38.448c-0.599-12.832-1.459-25.652-2.172-38.429c-0.87-12.768-1.736-25.486-2.595-38.104
				c-1.9-25.224-3.903-50.04-6.154-74.029c-2.165-23.997-4.575-47.165-6.922-69.127c-2.382-21.959-4.786-42.704-7.134-61.838
				c-9.357-76.547-17.615-127.285-17.615-127.285c-0.147-0.905,0.467-1.758,1.372-1.905
				C1640.03,247.377,1640.88,247.99,1641.032,248.89z"/>
		</g>
		<g>
			<path style="fill:#91B3FA;" d="M2139.015,228.926c19.5,124.811,103.32,855.774-568.476,1057.639
				c0,0-179.059-467.015,551.167-1064.29C2128.094,217.05,2137.74,220.772,2139.015,228.926z"/>
			<path style="fill:#DCE5FE;" d="M2079.58,341.095c0,0-11.812,62.765-37.34,154.979c-12.757,46.092-28.891,99.54-48.489,156.036
				c-19.526,56.514-42.617,116.042-68.622,174.314c-26.062,58.237-55.144,115.174-85.897,166.549
				c-15.379,25.682-31.136,49.983-46.91,72.456c-15.777,22.47-31.533,43.136-46.837,61.598
				c-15.309,18.459-30.13,34.725-43.697,48.726c-3.431,3.464-6.752,6.816-9.957,10.052c-3.217,3.225-6.449,6.201-9.484,9.133
				c-6.036,5.901-11.875,11.008-17.068,15.708c-1.302,1.171-2.568,2.311-3.8,3.419c-1.264,1.071-2.492,2.11-3.683,3.118
				c-2.381,2.016-4.613,3.906-6.69,5.664c-4.114,3.565-7.772,6.406-10.714,8.739c-5.884,4.666-9.022,7.155-9.022,7.155
				c-1.405,1.114-3.448,0.879-4.562-0.526c-1.114-1.405-0.879-3.448,0.526-4.562l0.009-0.007l0.084-0.066
				c0,0,3.112-2.45,8.948-7.045c2.919-2.296,6.548-5.093,10.632-8.607c2.062-1.733,4.278-3.595,6.642-5.582
				c1.182-0.993,2.401-2.018,3.657-3.073c1.223-1.093,2.482-2.218,3.775-3.373c5.16-4.636,10.962-9.671,16.965-15.498
				c3.018-2.895,6.233-5.831,9.433-9.016c3.19-3.197,6.495-6.509,9.909-9.931c13.506-13.836,28.274-29.924,43.548-48.203
				c15.269-18.282,31.008-38.768,46.784-61.062c15.773-22.297,31.547-46.429,46.957-71.95
				c30.817-51.054,60.021-107.709,86.233-165.708c26.155-58.034,49.421-117.365,69.123-173.715
				c19.774-56.332,36.082-109.65,48.992-155.636c12.904-45.994,22.387-84.667,28.625-111.82c6.233-27.158,9.227-42.78,9.227-42.78
				c0.143-0.746,0.864-1.235,1.61-1.092C2079.234,339.63,2079.723,340.349,2079.58,341.095z"/>
		</g>
		<g>
			<path style="fill:#BDD0FB;" d="M2277.977,833.688c-24.989,108.141-196.113,731.519-809.925,676.014
				c0,0,7.012-439.393,797.993-687.106C2272.965,820.428,2279.61,826.623,2277.977,833.688z"/>
			<path style="fill:#DCE5FE;" d="M2193.145,905.926c0,0-7.526,11.5-21.312,31.14c-6.927,9.8-15.348,21.694-25.26,35.152
				c-9.856,13.5-21.196,28.567-33.7,44.901c-12.592,16.266-26.287,33.851-41.195,52.112c-14.799,18.35-30.823,37.358-47.535,56.907
				c-16.886,19.398-34.45,39.351-52.851,59.125c-4.592,4.951-9.202,9.922-13.826,14.907c-4.704,4.91-9.422,9.836-14.149,14.77
				c-9.382,9.94-19.12,19.611-28.776,29.361c-4.798,4.906-9.718,9.689-14.65,14.451c-4.919,4.775-9.834,9.545-14.739,14.306
				c-9.908,9.419-19.922,18.653-29.815,27.857c-10.119,8.958-20.018,18.004-30.053,26.653c-5.047,4.291-10.064,8.556-15.045,12.79
				c-4.979,4.237-9.898,8.472-14.953,12.462c-19.935,16.303-39.633,31.552-58.744,45.43c-4.806,3.433-9.546,6.819-14.215,10.154
				c-4.662,3.346-9.247,6.65-13.918,9.668c-9.281,6.119-18.146,12.193-26.845,17.732c-8.793,5.397-17.219,10.569-25.234,15.488
				c-1.987,1.258-3.997,2.418-6.008,3.517c-1.998,1.12-3.97,2.224-5.913,3.313c-3.887,2.177-7.663,4.292-11.322,6.341
				c-3.661,2.046-7.204,4.027-10.624,5.939c-3.501,1.764-6.875,3.465-10.118,5.099c-6.486,3.268-12.443,6.27-17.824,8.981
				c-2.666,1.406-5.286,2.537-7.741,3.625c-2.453,1.092-4.752,2.115-6.891,3.067c-4.279,1.904-7.918,3.524-10.869,4.837
				c-5.903,2.626-9.051,4.027-9.051,4.027c-1.977,0.88-4.292-0.01-5.172-1.987c-0.88-1.977,0.01-4.293,1.987-5.172l0.018-0.008
				l0.184-0.08c0,0,3.119-1.369,8.966-3.936c2.924-1.283,6.531-2.866,10.771-4.727c2.12-0.931,4.399-1.93,6.83-2.997
				c2.433-1.063,5.03-2.167,7.677-3.547c5.341-2.657,11.254-5.599,17.691-8.801c3.219-1.601,6.57-3.268,10.045-4.996
				c3.399-1.878,6.921-3.823,10.559-5.833c3.637-2.013,7.391-4.09,11.255-6.228c1.932-1.069,3.892-2.154,5.88-3.253
				c1.999-1.078,3.998-2.219,5.977-3.457c7.978-4.84,16.366-9.93,25.118-15.24c8.664-5.455,17.499-11.444,26.75-17.473
				c4.655-2.972,9.229-6.233,13.879-9.535c4.658-3.292,9.387-6.633,14.181-10.021c19.071-13.7,38.746-28.768,58.672-44.894
				c5.052-3.945,9.972-8.137,14.951-12.33c4.981-4.191,9.999-8.412,15.047-12.659c10.039-8.561,19.946-17.524,30.074-26.395
				c9.905-9.12,19.932-18.271,29.856-27.608c4.914-4.721,9.838-9.451,14.766-14.185c4.942-4.721,9.871-9.465,14.68-14.332
				c9.678-9.673,19.439-19.266,28.847-29.132c4.74-4.898,9.471-9.786,14.189-14.66c4.638-4.95,9.263-9.885,13.869-14.8
				c18.458-19.633,36.087-39.452,53.039-58.725c16.779-19.424,32.872-38.315,47.739-56.557
				c14.976-18.153,28.739-35.637,41.394-51.813c12.568-16.243,23.968-31.229,33.877-44.656
				c9.965-13.386,18.433-25.216,25.398-34.962c13.87-19.546,21.413-30.944,21.413-30.944c0.506-0.765,1.536-0.974,2.301-0.468
				C2193.438,904.131,2193.645,905.162,2193.145,905.926z"/>
		</g>
		<g>
			<rect x="762.241" y="1320.227" style="fill:#7D97F4;" width="968.047" height="21.951"/>
			<path style="fill:#7D97F4;" d="M1742.335,1413.207l-24.095-1.571c11.012-168.855-9.014-762.966-15.414-941.032
				c-0.922-25.657-22.39-46.287-47.997-46.287c-0.218,0-0.434,0.001-0.652,0.004l-848.557,11.571
				c-11.349,0.154-21.84,4.83-29.54,13.164c-7.719,8.356-11.56,19.218-10.815,30.585c14.082,214.834,9.099,925.713,9.047,932.868
				l-24.146-0.176c0.052-7.147,5.029-717.149-8.996-931.113c-1.182-18.04,4.917-35.283,17.174-48.55
				c12.238-13.247,28.911-20.678,46.945-20.923l848.557-11.571c38.946-0.556,71.711,30.674,73.11,69.559
				C1733.367,648.089,1753.421,1243.223,1742.335,1413.207z"/>
			<g>
				<path style="fill:#7D97F4;" d="M617.271,1481.597l-8.846-32.435c-4.946-18.136,8.419-36.108,27.211-36.589l277.058-7.104
					c15.332-0.393,27.741,12.373,26.913,27.687l-2.551,47.204c-0.17,3.14-2.765,5.599-5.91,5.599h-3.84
					c-3.269,0-5.918-2.65-5.918-5.918v-41.608c0-8.791-7.334-15.806-16.116-15.416l-264.142,11.74
					c-8.77,0.39-15.448,8.007-14.688,16.753l2.436,28.019c0.301,3.458-2.425,6.431-5.896,6.431l0,0
					C620.312,1485.958,617.974,1484.172,617.271,1481.597z"/>
				<g>
					
						<linearGradient id="SVGID_00000176729157338179317200000008520386713722152585_" gradientUnits="userSpaceOnUse" x1="598.7045" y1="1488.1533" x2="651.3874" y2="1488.1533">
						<stop  offset="0" style="stop-color:#09005D"/>
						<stop  offset="1" style="stop-color:#1A0F91"/>
					</linearGradient>
					
						<circle style="fill:url(#SVGID_00000176729157338179317200000008520386713722152585_);" cx="625.046" cy="1488.153" r="26.341"/>
					
						<linearGradient id="SVGID_00000069364828170829011240000008498309494543949732_" gradientUnits="userSpaceOnUse" x1="622.851" y1="1414.6169" x2="622.851" y2="1648.3965">
						<stop  offset="0" style="stop-color:#4042E2"/>
						<stop  offset="1" style="stop-color:#4F52FF"/>
					</linearGradient>
					
						<circle style="fill:url(#SVGID_00000069364828170829011240000008498309494543949732_);" cx="622.851" cy="1488.153" r="15.366"/>
				</g>
				<g>
					
						<linearGradient id="SVGID_00000151545757189519843240000011508393202907411375_" gradientUnits="userSpaceOnUse" x1="906.0211" y1="1488.1533" x2="958.7039" y2="1488.1533">
						<stop  offset="0" style="stop-color:#09005D"/>
						<stop  offset="1" style="stop-color:#1A0F91"/>
					</linearGradient>
					
						<circle style="fill:url(#SVGID_00000151545757189519843240000011508393202907411375_);" cx="932.362" cy="1488.153" r="26.341"/>
					
						<linearGradient id="SVGID_00000180328675693660967640000008783244386818959257_" gradientUnits="userSpaceOnUse" x1="930.1675" y1="1414.6169" x2="930.1675" y2="1648.3965">
						<stop  offset="0" style="stop-color:#4042E2"/>
						<stop  offset="1" style="stop-color:#4F52FF"/>
					</linearGradient>
					
						<circle style="fill:url(#SVGID_00000180328675693660967640000008783244386818959257_);" cx="930.167" cy="1488.153" r="15.366"/>
				</g>
			</g>
			<g>
				<path style="fill:#7D97F4;" d="M1573.245,1482.695l-8.846-32.436c-4.946-18.136,8.419-36.107,27.211-36.589l277.058-7.104
					c15.332-0.393,27.74,12.373,26.913,27.687l-2.552,47.204c-0.17,3.14-2.765,5.599-5.909,5.599h-3.841
					c-3.269,0-5.918-2.65-5.918-5.918v-41.608c0-8.791-7.334-15.806-16.116-15.416l-264.142,11.74
					c-8.77,0.39-15.449,8.007-14.688,16.753l2.437,28.019c0.3,3.458-2.425,6.431-5.896,6.431l0,0
					C1576.286,1487.056,1573.947,1485.27,1573.245,1482.695z"/>
				<g>
					
						<linearGradient id="SVGID_00000111912542552559586430000008168926539168185783_" gradientUnits="userSpaceOnUse" x1="1554.6783" y1="1489.2509" x2="1607.3613" y2="1489.2509">
						<stop  offset="0" style="stop-color:#09005D"/>
						<stop  offset="1" style="stop-color:#1A0F91"/>
					</linearGradient>
					
						<circle style="fill:url(#SVGID_00000111912542552559586430000008168926539168185783_);" cx="1581.02" cy="1489.251" r="26.341"/>
					
						<linearGradient id="SVGID_00000081628091060881441360000002534154485075408781_" gradientUnits="userSpaceOnUse" x1="1578.8247" y1="1415.7145" x2="1578.8247" y2="1649.494">
						<stop  offset="0" style="stop-color:#4042E2"/>
						<stop  offset="1" style="stop-color:#4F52FF"/>
					</linearGradient>
					
						<circle style="fill:url(#SVGID_00000081628091060881441360000002534154485075408781_);" cx="1578.825" cy="1489.251" r="15.366"/>
				</g>
				<g>
					
						<linearGradient id="SVGID_00000000222878344842983740000003642259359728009606_" gradientUnits="userSpaceOnUse" x1="1861.995" y1="1489.2509" x2="1914.6777" y2="1489.2509">
						<stop  offset="0" style="stop-color:#09005D"/>
						<stop  offset="1" style="stop-color:#1A0F91"/>
					</linearGradient>
					
						<circle style="fill:url(#SVGID_00000000222878344842983740000003642259359728009606_);" cx="1888.336" cy="1489.251" r="26.341"/>
					
						<linearGradient id="SVGID_00000161591722484338144720000012795217774027157158_" gradientUnits="userSpaceOnUse" x1="1886.1412" y1="1415.7145" x2="1886.1412" y2="1649.494">
						<stop  offset="0" style="stop-color:#4042E2"/>
						<stop  offset="1" style="stop-color:#4F52FF"/>
					</linearGradient>
					
						<circle style="fill:url(#SVGID_00000161591722484338144720000012795217774027157158_);" cx="1886.141" cy="1489.251" r="15.366"/>
				</g>
			</g>
			
				<linearGradient id="SVGID_00000132069433646458014280000006498109353496993152_" gradientUnits="userSpaceOnUse" x1="1050.0348" y1="497.0368" x2="1042.9827" y2="418.0541">
				<stop  offset="0" style="stop-color:#53D8FF"/>
				<stop  offset="1" style="stop-color:#3840F7"/>
			</linearGradient>
			
				<rect x="1043.216" y="418.033" style="fill:url(#SVGID_00000132069433646458014280000006498109353496993152_);" width="6.585" height="79.024"/>
			<g>
				
					<linearGradient id="SVGID_00000078041914238969752490000006592324416625494446_" gradientUnits="userSpaceOnUse" x1="1085.0985" y1="1151.2288" x2="1093.0988" y2="1815.2274">
					<stop  offset="0" style="stop-color:#FE7062"/>
					<stop  offset="1" style="stop-color:#FF928E"/>
				</linearGradient>
				<path style="fill:url(#SVGID_00000078041914238969752490000006592324416625494446_);" d="M980.655,834.008
					c0,0,105.366-19.756,186.585-8.78c0,0,35.144,134.717,50.416,202.031c3.909,17.227-8.554,33.841-26.188,34.88
					c-53.013,3.123-157.276,8.58-214.609,6.971c-16.916-0.475-29.709-15.439-27.549-32.223
					C956.541,980.7,972.36,862.213,980.655,834.008z"/>
				
					<linearGradient id="SVGID_00000119117309435804166610000008617818863051754911_" gradientUnits="userSpaceOnUse" x1="1163.4554" y1="-22.4188" x2="1131.4557" y2="249.5811">
					<stop  offset="0" style="stop-color:#09005D"/>
					<stop  offset="1" style="stop-color:#1A0F91"/>
				</linearGradient>
				<path style="fill:url(#SVGID_00000119117309435804166610000008617818863051754911_);" d="M1118.938,922.911
					c-3.908,0.001-7.252-2.969-7.637-6.94c-0.102-1.044-10.294-105.613-23.83-211.918c-20.63-162.006-33.719-208.428-39.767-221.644
					c-4.443,13.677-11.771,60.741-11.91,222.003c-0.092,105.846,2.998,209.549,3.029,210.584c0.128,4.241-3.207,7.783-7.448,7.911
					c-4.25,0.108-7.784-3.207-7.911-7.448c-0.033-1.093-3.293-110.575-3.021-219.585c0.16-64.114,1.492-115.555,3.961-152.896
					c4.611-69.75,12.145-77.447,20.113-79.586c3.077-0.825,6.313-0.215,9.108,1.72c6.175,4.278,20.636,14.296,48.789,234.651
					c13.716,107.354,24.078,213.661,24.181,214.722c0.411,4.223-2.681,7.98-6.904,8.389
					C1119.437,922.899,1119.187,922.911,1118.938,922.911z"/>
				
					<linearGradient id="SVGID_00000178895976686648203750000007988136383289503153_" gradientUnits="userSpaceOnUse" x1="1029.889" y1="824.5588" x2="1033.1816" y2="1011.144">
					<stop  offset="0" style="stop-color:#E1473D"/>
					<stop  offset="1" style="stop-color:#E9605A"/>
				</linearGradient>
				<path style="fill:url(#SVGID_00000178895976686648203750000007988136383289503153_);" d="M1017.972,858.154h24.146l2.005,64.156
					c0.104,3.331-2.568,6.088-5.901,6.088h-12.334c-3.189,0-5.801-2.532-5.901-5.719L1017.972,858.154z"/>
				
					<linearGradient id="SVGID_00000074423076050109954650000017363486725645326236_" gradientUnits="userSpaceOnUse" x1="1114.2354" y1="823.0704" x2="1117.5281" y2="1009.6555">
					<stop  offset="0" style="stop-color:#E1473D"/>
					<stop  offset="1" style="stop-color:#E9605A"/>
				</linearGradient>
				<path style="fill:url(#SVGID_00000074423076050109954650000017363486725645326236_);" d="M1101.386,853.764h21.951l6.019,68.212
					c0.305,3.452-2.415,6.422-5.88,6.422h-10.099c-3.059,0-5.612-2.337-5.88-5.385L1101.386,853.764z"/>
			</g>
			<g>
				
					<linearGradient id="SVGID_00000038385619521452541090000017692453559365303742_" gradientUnits="userSpaceOnUse" x1="904.9371" y1="615.7308" x2="720.5469" y2="265.9739">
					<stop  offset="0" style="stop-color:#4042E2"/>
					<stop  offset="1" style="stop-color:#4F52FF"/>
				</linearGradient>
				<path style="fill:url(#SVGID_00000038385619521452541090000017692453559365303742_);" d="M730.412,506.936
					c0,0-11.469-21.895-21.472-49.877c-8.587-24.02-1.026-50.932,18.873-66.892c9.508-7.626,20.591-15.831,32.253-23.094
					c24.112-15.015,55.303-11.978,75.899,7.583c12.011,11.408,24.961,23.274,32.74,29.108c0,0,120.916,0,181.486-35.893
					c5.781-3.426,13.092,0.802,13.107,7.521c0.052,22.032-7.264,62.915-56.301,92.03c-70.244,41.707-125.122,85.61-158.049,133.902
					c-30.955,45.401-135.633,104.382-190.008,85.749c-5.296-1.815-7.372-8.196-4.382-12.929
					C688.851,619.857,716.424,564.489,730.412,506.936z"/>
				
					<linearGradient id="SVGID_00000182522871515692704130000010319289188248430259_" gradientUnits="userSpaceOnUse" x1="826.5021" y1="74.4783" x2="810.5023" y2="258.4785">
					<stop  offset="0" style="stop-color:#09005D"/>
					<stop  offset="1" style="stop-color:#1A0F91"/>
				</linearGradient>
				<path style="fill:url(#SVGID_00000182522871515692704130000010319289188248430259_);" d="M868.704,403.765
					c-4.068-3.051-9.554-7.758-15.576-13.179c-35.513,61.423-125.397,91.706-133.142,94.222
					c5.871,13.431,10.425,22.128,10.425,22.128S835.777,474.009,868.704,403.765z"/>
			</g>
			<g>
				
					<linearGradient id="SVGID_00000107586218160185292650000017255428386669859501_" gradientUnits="userSpaceOnUse" x1="1622.7129" y1="8.7162" x2="1574.7129" y2="268.7161">
					<stop  offset="0" style="stop-color:#09005D"/>
					<stop  offset="1" style="stop-color:#1A0F91"/>
				</linearGradient>
				<path style="fill:url(#SVGID_00000107586218160185292650000017255428386669859501_);" d="M1426.26,520.108
					c-3.833,0-7.355-2.528-8.446-6.399c-1.317-4.668,1.4-9.518,6.067-10.834c3.568-1.006,88.812-24.446,212.162-6.827
					c4.8,0.686,8.136,5.134,7.45,9.935c-0.687,4.799-5.129,8.132-9.935,7.45c-119.699-17.103-204.071,6.107-204.91,6.343
					C1427.85,520.001,1427.049,520.108,1426.26,520.108z"/>
				
					<linearGradient id="SVGID_00000047041118756769477250000008252246707323366309_" gradientUnits="userSpaceOnUse" x1="1596.3331" y1="3.8468" x2="1548.3331" y2="263.8473">
					<stop  offset="0" style="stop-color:#09005D"/>
					<stop  offset="1" style="stop-color:#1A0F91"/>
				</linearGradient>
				<path style="fill:url(#SVGID_00000047041118756769477250000008252246707323366309_);" d="M1517.995,507.121
					c-4.693,0-8.585-3.712-8.767-8.443c-0.006-0.168-0.646-16.995-0.646-32.352c0-8.615,7.009-16.346,15.881-26.134
					c18.139-20.01,23.993-29.97,13.286-39.853c-6.181-5.707-12.099-8.162-18.072-7.499c-11.706,1.29-20.588,13.938-20.677,14.066
					c-2.753,3.975-8.213,4.992-12.199,2.255c-3.986-2.737-5.02-8.168-2.299-12.164c0.536-0.789,13.37-19.338,33.108-21.596
					c11.232-1.278,22.008,2.765,32.049,12.034c25.224,23.283,1.806,49.116-12.185,64.551c-4.27,4.711-10.701,11.805-11.331,14.511
					c0.004,14.977,0.627,31.341,0.634,31.505c0.187,4.846-3.591,8.925-8.437,9.112
					C1518.224,507.119,1518.11,507.121,1517.995,507.121z"/>
			</g>
			<g>
				
					<linearGradient id="SVGID_00000016075977970169185540000006432079160916601505_" gradientUnits="userSpaceOnUse" x1="1526.9354" y1="583.7008" x2="1478.9358" y2="1315.7009">
					<stop  offset="0" style="stop-color:#FE7062"/>
					<stop  offset="1" style="stop-color:#FF928E"/>
				</linearGradient>
				<path style="fill:url(#SVGID_00000016075977970169185540000006432079160916601505_);" d="M1452.699,493.641
					c31.868-3.811,100.317-10.25,150.154-2.616c7.217,1.105,11.743,8.581,9.177,15.416c-7.167,19.087-7.892,46.922,2.734,71.959
					c1.552,3.656,1.919,7.707,0.999,11.572l-20.474,85.989l-122.927,6.585l-24.874-91.206c-0.906-3.32-0.881-6.812,0.098-10.112
					c3.425-11.546,10.212-42.331-3.798-71.217C1440.352,502.926,1444.881,494.575,1452.699,493.641z"/>
				
					<linearGradient id="SVGID_00000094589023756523987630000011497823027713203132_" gradientUnits="userSpaceOnUse" x1="1601.9803" y1="588.6218" x2="1553.9807" y2="1320.6216">
					<stop  offset="0" style="stop-color:#FE7062"/>
					<stop  offset="1" style="stop-color:#FF928E"/>
				</linearGradient>
				<path style="fill:url(#SVGID_00000094589023756523987630000011497823027713203132_);" d="M1751.141,1066.691
					c0,0-46.097-241.463-151.463-384.146l-129.512,4.39c0,0-81.219,215.122-79.024,392.926c0,0,37.317,28.536,109.756,8.78
					c72.439-19.756,76.829-2.195,122.927,8.781C1669.922,1108.398,1751.141,1066.691,1751.141,1066.691z"/>
				
					<linearGradient id="SVGID_00000160165622015672132980000005578496765251886255_" gradientUnits="userSpaceOnUse" x1="1486.7406" y1="783.8713" x2="1574.5453" y2="577.5302">
					<stop  offset="0" style="stop-color:#E1473D"/>
					<stop  offset="1" style="stop-color:#E9605A"/>
				</linearGradient>
				<path style="fill:url(#SVGID_00000160165622015672132980000005578496765251886255_);" d="M1467.548,664.896l2.618,22.039
					c0,0,90,13.171,129.512-4.39l-2.115-20.604C1597.564,661.942,1509.678,673.765,1467.548,664.896z"/>
			</g>
			<g>
				
					<linearGradient id="SVGID_00000171684432379121593910000009861932709616092300_" gradientUnits="userSpaceOnUse" x1="1368.9517" y1="665.5832" x2="1400.952" y2="1045.5836">
					<stop  offset="0" style="stop-color:#4042E2"/>
					<stop  offset="1" style="stop-color:#4F52FF"/>
				</linearGradient>
				<path style="fill:url(#SVGID_00000171684432379121593910000009861932709616092300_);" d="M1263.825,487.18
					c0,0,2.195-28.537,37.317-21.951c35.122,6.585,79.024,10.976,94.39,0c15.366-10.975,54.957-7.521,46.097,15.366
					C1415.288,548.643,1263.825,487.18,1263.825,487.18z"/>
				<g>
					
						<linearGradient id="SVGID_00000026137090815770304590000012428808727301752754_" gradientUnits="userSpaceOnUse" x1="1430.7572" y1="-26.7211" x2="1382.7572" y2="233.2793">
						<stop  offset="0" style="stop-color:#09005D"/>
						<stop  offset="1" style="stop-color:#1A0F91"/>
					</linearGradient>
					<path style="fill:url(#SVGID_00000026137090815770304590000012428808727301752754_);" d="M1346.776,507.121
						c-4.693,0-8.585-3.712-8.768-8.443c-0.006-0.168-0.646-16.995-0.646-32.352c0-8.615,7.009-16.346,15.881-26.134
						c18.139-20.01,23.993-29.97,13.285-39.853c-6.181-5.707-12.099-8.162-18.072-7.499c-11.706,1.29-20.588,13.938-20.677,14.066
						c-2.754,3.975-8.213,4.992-12.198,2.255c-3.986-2.737-5.021-8.168-2.299-12.164c0.536-0.789,13.37-19.338,33.108-21.596
						c11.232-1.278,22.008,2.765,32.049,12.034c25.225,23.283,1.806,49.116-12.185,64.551c-4.27,4.711-10.701,11.805-11.331,14.511
						c0.004,14.977,0.627,31.341,0.633,31.505c0.186,4.846-3.591,8.925-8.436,9.112
						C1347.005,507.119,1346.89,507.121,1346.776,507.121z"/>
				</g>
				<g>
					
						<linearGradient id="SVGID_00000147191086975337095150000008262604234582023325_" gradientUnits="userSpaceOnUse" x1="1394.7463" y1="1293.3997" x2="1381.5756" y2="1205.595">
						<stop  offset="1" style="stop-color:#09005D"/>
						<stop  offset="1" style="stop-color:#1A0F91"/>
					</linearGradient>
					<path style="fill:url(#SVGID_00000147191086975337095150000008262604234582023325_);" d="M1292.362,1180.837
						c4.39-2.195,151.463-2.195,151.463-2.195l-21.951-274.39l-94.39,2.195L1292.362,1180.837z"/>
					
						<linearGradient id="SVGID_00000103975854812019963510000005858990571783854510_" gradientUnits="userSpaceOnUse" x1="1396.3024" y1="398.7278" x2="1536.7902" y2="-382.7359">
						<stop  offset="0" style="stop-color:#FE7062"/>
						<stop  offset="1" style="stop-color:#FF928E"/>
					</linearGradient>
					<polygon style="fill:url(#SVGID_00000103975854812019963510000005858990571783854510_);" points="1303.337,897.667 
						1421.874,897.667 1426.264,528.887 1257.24,531.082 					"/>
					
						<linearGradient id="SVGID_00000132047028133208938860000012564794268566615991_" gradientUnits="userSpaceOnUse" x1="1232.9536" y1="926.7624" x2="1246.1243" y2="413.106">
						<stop  offset="0" style="stop-color:#09005D"/>
						<stop  offset="1" style="stop-color:#1A0F91"/>
					</linearGradient>
					<path style="fill:url(#SVGID_00000132047028133208938860000012564794268566615991_);" d="M1240.779,541.022
						c-15.18,45.97-41.679,183.536-16.466,365.425c0,0,13.171,10.976,32.927,0l8.78-384.146l-2.76,0.345
						C1252.858,523.947,1244.066,531.067,1240.779,541.022z"/>
					
						<linearGradient id="SVGID_00000069392827376581680080000017923192014741757881_" gradientUnits="userSpaceOnUse" x1="1460.3453" y1="932.5928" x2="1473.516" y2="418.9351">
						<stop  offset="0" style="stop-color:#09005D"/>
						<stop  offset="1" style="stop-color:#1A0F91"/>
					</linearGradient>
					<path style="fill:url(#SVGID_00000069392827376581680080000017923192014741757881_);" d="M1435.073,515.896
						c-1.822,0.952,66.404,137.755,74.769,371.75c0.317,8.854-7.12,16.06-15.976,16.33c-5.19,0.158-10.702-0.232-14.918-1.919
						c-10.976-4.39-57.073-355.609-57.073-355.609L1435.073,515.896z"/>
					
						<linearGradient id="SVGID_00000140014268413265686510000016088148803221103490_" gradientUnits="userSpaceOnUse" x1="1486.951" y1="110.2535" x2="1374.9512" y2="530.2539">
						<stop  offset="0" style="stop-color:#09005D"/>
						<stop  offset="1" style="stop-color:#1A0F91"/>
					</linearGradient>
					<path style="fill:url(#SVGID_00000140014268413265686510000016088148803221103490_);" d="M1256.389,522.901l31.583-2.794
						c0,0,90,324.878,96.585,384.146c5.376,48.379-46.291,209.381-65.458,266.907c-5.565,16.702-22.165,27.509-39.596,25.038
						c-4.58-0.649-9.187-1.998-13.483-4.385C1266.02,1191.812,1217.728,693.521,1256.389,522.901z"/>
					
						<linearGradient id="SVGID_00000171683183554974237400000016290007111299443886_" gradientUnits="userSpaceOnUse" x1="1632.5397" y1="149.0773" x2="1520.5398" y2="569.0773">
						<stop  offset="0" style="stop-color:#09005D"/>
						<stop  offset="1" style="stop-color:#1A0F91"/>
					</linearGradient>
					<path style="fill:url(#SVGID_00000171683183554974237400000016290007111299443886_);" d="M1410.898,520.106l-40.262,377.188
						c-0.959,8.986-0.469,18.064,1.454,26.893c11.844,54.366,56.239,256.519,62.954,263.234c5.893,5.892,16.179,6.073,25.748,4.473
						c13.017-2.176,22.546-13.444,22.496-26.641c-0.245-64.976-1.746-271.959-10.928-372.953
						c-10.976-120.732-46.097-272.195-46.097-272.195H1410.898z"/>
					
						<linearGradient id="SVGID_00000121252889476606794350000003908235272263190161_" gradientUnits="userSpaceOnUse" x1="1427.4418" y1="812.3851" x2="1374.7585" y2="957.2639">
						<stop  offset="0" style="stop-color:#FE7062"/>
						<stop  offset="1" style="stop-color:#FF928E"/>
					</linearGradient>
					
						<circle style="fill:url(#SVGID_00000121252889476606794350000003908235272263190161_);" cx="1394.435" cy="903.154" r="7.683"/>
					
						<linearGradient id="SVGID_00000175302315259374235110000017045429076829844145_" gradientUnits="userSpaceOnUse" x1="1378.2035" y1="75.4503" x2="1350.2037" y2="567.4503">
						<stop  offset="0" style="stop-color:#4042E2"/>
						<stop  offset="1" style="stop-color:#4F52FF"/>
					</linearGradient>
					<path style="fill:url(#SVGID_00000175302315259374235110000017045429076829844145_);" d="M1257.944,536.682
						c0,0-18.265-9.991-7.29-47.308c10.976-37.317,43.902-8.78,72.439,2.195c28.536,10.976,81.219-15.366,96.585-24.146
						c15.366-8.78,39.512-8.78,39.512,52.683S1320.112,625.697,1257.944,536.682z"/>
				</g>
			</g>
		</g>
		<g>
			
				<linearGradient id="SVGID_00000160187079710402353920000009884149369600595104_" gradientUnits="userSpaceOnUse" x1="3781.7271" y1="977.2787" x2="3741.4016" y2="1100.8853" gradientTransform="matrix(1 0 0 1 -1915.5942 0)">
				<stop  offset="0" style="stop-color:#FF928E"/>
				<stop  offset="1" style="stop-color:#FEB3B1"/>
			</linearGradient>
			<path style="fill:url(#SVGID_00000160187079710402353920000009884149369600595104_);" d="M1826.712,988.831
				c0,0-55.129,70.584,7.769,142.372l23.647-2.203c0,0-43.289-69.507-26.635-126.989c0.734-2.536,3.116-4.238,5.749-4.046
				l24.141,1.762c3.211,0.234,6.392-0.757,8.902-2.773l14.618-11.748L1826.712,988.831z"/>
			
				<linearGradient id="SVGID_00000179613171537992157180000000062314669546369667_" gradientUnits="userSpaceOnUse" x1="1734.0183" y1="784.3757" x2="1943.4226" y2="932.2766">
				<stop  offset="0" style="stop-color:#4042E2"/>
				<stop  offset="1" style="stop-color:#4F52FF"/>
			</linearGradient>
			<path style="fill:url(#SVGID_00000179613171537992157180000000062314669546369667_);" d="M1872.204,675.578l-28.517-27.817
				c-4.339-4.232-10.16-6.601-16.221-6.601h-61.863c-5.965,0-11.702,2.295-16.021,6.409l-29.182,27.792
				c-4.449,4.237-7.039,10.065-7.201,16.207l-7.278,274.736c-0.346,13.066,10.151,23.846,23.222,23.846h139.574
				c13.252,0,23.819-11.069,23.206-24.307l-12.735-274.711C1878.916,685.249,1876.42,679.689,1872.204,675.578z M1797.007,689.899
				c-11.873,1.948-21.992-8.171-20.045-20.044c1.179-7.19,6.978-12.988,14.168-14.168c11.872-1.947,21.991,8.171,20.044,20.044
				C1809.995,682.92,1804.196,688.719,1797.007,689.899z"/>
			
				<linearGradient id="SVGID_00000153670695382532571470000000273566748382682281_" gradientUnits="userSpaceOnUse" x1="3772.4995" y1="1411.4856" x2="3855.9968" y2="1411.4856" gradientTransform="matrix(1 0 0 1 -1915.5942 0)">
				<stop  offset="0" style="stop-color:#FF928E"/>
				<stop  offset="1" style="stop-color:#FEB3B1"/>
			</linearGradient>
			<path style="fill:url(#SVGID_00000153670695382532571470000000273566748382682281_);" d="M1856.905,1334.405
				c0,0,44.667,97.351,68.101,137.674c0,0,4.655,25.372,0,33.35l-3.967,1.763l18.512-0.551c0,0,1.645-34.128,0.36-36.034
				s-3.853-1.781-3.853-1.781s-7.938-62.889-30.927-76.311l-22.279-76.736L1856.905,1334.405z"/>
			
				<linearGradient id="SVGID_00000070832201966640214850000016768567935773929093_" gradientUnits="userSpaceOnUse" x1="3887.269" y1="1224.7599" x2="3845.9185" y2="1493.5369" gradientTransform="matrix(1 0 0 1 -1915.5942 0)">
				<stop  offset="0" style="stop-color:#4042E2"/>
				<stop  offset="1" style="stop-color:#4F52FF"/>
			</linearGradient>
			<path style="fill:url(#SVGID_00000070832201966640214850000016768567935773929093_);" d="M1913.133,1511.972
				c-0.027,0.446,14.456,0.242,22.323,0.099c2.905-0.053,5.381-2.095,6.001-4.934l5.942-31.214c0.564-2.967-1.319-5.848-4.263-6.521
				l-3.316-0.758c0,0-4.731,6.49-3.242,12.6c1.489,6.11,2.815,21.938-0.949,23.782c-3.763,1.844-14.59,2.167-14.59,2.167
				S1913.381,1507.951,1913.133,1511.972z"/>
			
				<linearGradient id="SVGID_00000124857132629797469570000002405041735934540202_" gradientUnits="userSpaceOnUse" x1="3799.7759" y1="1211.2981" x2="3758.425" y2="1480.0775" gradientTransform="matrix(1 0 0 1 -1915.5942 0)">
				<stop  offset="0" style="stop-color:#4042E2"/>
				<stop  offset="1" style="stop-color:#4F52FF"/>
			</linearGradient>
			<path style="fill:url(#SVGID_00000124857132629797469570000002405041735934540202_);" d="M1814.569,1512.538
				c-1.465,0.834-0.861,3.071,0.825,3.054c13.166-0.132,42.668-0.549,45.29-1.639c3.384-1.407-1.234-13.569-6.094-17.686
				l-26.836,8.759L1814.569,1512.538z"/>
			
				<linearGradient id="SVGID_00000103243088995396768050000007109011741286557609_" gradientUnits="userSpaceOnUse" x1="3721.8335" y1="1417.6942" x2="3770.1853" y2="1417.6942" gradientTransform="matrix(1 0 0 1 -1915.5942 0)">
				<stop  offset="0" style="stop-color:#FF928E"/>
				<stop  offset="1" style="stop-color:#FEB3B1"/>
			</linearGradient>
			<path style="fill:url(#SVGID_00000103243088995396768050000007109011741286557609_);" d="M1806.239,1328.196
				c0,0,28.865,139.636,37.03,166.874l-19.316,12.122c0,0,9.68-1.646,16.858-2.167c7.178-0.52,13.781-8.759,13.781-8.759
				l-2.314-3.691c0,0-7.239-138.875-5.476-154.645L1806.239,1328.196z"/>
			
				<linearGradient id="SVGID_00000143602328273844099810000017945920231084991386_" gradientUnits="userSpaceOnUse" x1="3617.6753" y1="1054.9285" x2="3712.3325" y2="1054.9285" gradientTransform="matrix(1 0 0 1 -1915.5942 0)">
				<stop  offset="0" style="stop-color:#FF928E"/>
				<stop  offset="1" style="stop-color:#FEB3B1"/>
			</linearGradient>
			<path style="fill:url(#SVGID_00000143602328273844099810000017945920231084991386_);" d="M1734.588,1002.495
				c0,0-3.982,72.637,62.15,109.755l-15.921,36.312c0,0-59.874-36.214-57.66-134.986c0.064-2.834-0.959-5.587-2.81-7.735
				l-12.725-14.763c-4.848-5.624-6.66-13.254-4.858-20.458l1.675-6.695c0.561-2.242,3.114-3.32,5.112-2.16l1.331,0.773
				c4.236,2.461,7.592,6.19,9.593,10.662l6.39,10.083c2.334,5.217,2.878,7.406,8.573,6.915l10.588,0.119L1734.588,1002.495z"/>
			
				<linearGradient id="SVGID_00000090975186367606870580000017041068115765033380_" gradientUnits="userSpaceOnUse" x1="-1068.4479" y1="1318.0669" x2="-1013.5341" y2="1223.6154" gradientTransform="matrix(-1 0 0 1 856.0935 0)">
				<stop  offset="0" style="stop-color:#4042E2"/>
				<stop  offset="1" style="stop-color:#4F52FF"/>
			</linearGradient>
			<path style="fill:url(#SVGID_00000090975186367606870580000017041068115765033380_);" d="M1794.437,1106.807
				c11.064,3.068,48.546,12.928,71.945,12.525l-14.367,81.074l1.143,13.224l-46.842-0.21c0,0-13.186-30.624-23.59-45.892
				c-3.005-4.41-0.769-9.669,0.935-14.726l-2.34-1.558c-2.381-1.585-3.414-4.563-2.525-7.282l11.407-34.9
				C1790.796,1107.304,1792.648,1106.311,1794.437,1106.807z"/>
			
				<linearGradient id="SVGID_00000016073057386408391460000007726441241304611474_" gradientUnits="userSpaceOnUse" x1="1971.9573" y1="949.6744" x2="1863.9572" y2="1221.6746">
				<stop  offset="0" style="stop-color:#09005D"/>
				<stop  offset="1" style="stop-color:#1A0F91"/>
			</linearGradient>
			<path style="fill:url(#SVGID_00000016073057386408391460000007726441241304611474_);" d="M1802.563,1206.501l0.921,8.011
				c0,0-13.237,39.643,6.619,132.235c0,0,43.004,12.183,78.349-16.97c0,0-9.97-87.392-12.694-91.463
				c-13.564-20.276-22.6-24.684-22.6-24.684l-0.408-8.752C1852.751,1204.878,1814.948,1211.713,1802.563,1206.501z"/>
			
				<linearGradient id="SVGID_00000036220313427272567400000000483392465229552048_" gradientUnits="userSpaceOnUse" x1="3736.4917" y1="1101.4009" x2="3766.0803" y2="1101.4009" gradientTransform="matrix(1 0 0 1 -1915.5942 0)">
				<stop  offset="0" style="stop-color:#FF928E"/>
				<stop  offset="1" style="stop-color:#FEB3B1"/>
			</linearGradient>
			<path style="fill:url(#SVGID_00000036220313427272567400000000483392465229552048_);" d="M1820.9,1113.341
				c-0.164-0.217,9.779-30.021,9.779-30.021l14.243,1.292l5.564,33.811C1850.486,1118.424,1828.164,1122.929,1820.9,1113.341z"/>
			
				<linearGradient id="SVGID_00000084496570151101423020000017119587394583690890_" gradientUnits="userSpaceOnUse" x1="3783.5176" y1="1063.1638" x2="3998.8848" y2="1077.8087" gradientTransform="matrix(1 0 0 1 -1915.5942 0)">
				<stop  offset="0" style="stop-color:#FF928E"/>
				<stop  offset="1" style="stop-color:#FEB3B1"/>
			</linearGradient>
			<path style="fill:url(#SVGID_00000084496570151101423020000017119587394583690890_);" d="M1841.512,1036.319
				c-0.95,0.591-30.436,12.777-24.101,43.389c0.374,1.809,1.581,3.342,3.269,4.095c4.327,1.93,13.642,5.235,24.784,4.102
				c15.447-1.57,25.569-28.525,25.138-36.368C1870.172,1043.693,1850.925,1030.458,1841.512,1036.319z"/>
			
				<linearGradient id="SVGID_00000053517086962819549670000005215997193916670850_" gradientUnits="userSpaceOnUse" x1="3818.916" y1="1050.1818" x2="3743.1072" y2="1201.7991" gradientTransform="matrix(1 0 0 1 -1915.5942 0)">
				<stop  offset="0" style="stop-color:#09005D"/>
				<stop  offset="1" style="stop-color:#1A0F91"/>
			</linearGradient>
			<path style="fill:url(#SVGID_00000053517086962819549670000005215997193916670850_);" d="M1850.486,1024.418
				c-0.775,0.102-17.04,5.766-8.974,17.552c8.066,11.786,11.092,18.724,7.277,23.899c-3.476,4.715-11.175,2.028-10.503,11.837
				c0.134,1.964-0.715,3.87-2.345,4.973c-7.255,4.911-24.957,20.028-7.419,41.586c1.425,1.752,1.719,4.171,0.619,6.144
				c-5.136,9.213-15.926,36.203,23.136,51.174c38.599,14.794,52.536-10.437,56.43-20.523c0.842-2.181,2.99-3.517,5.325-3.406
				c4.241,0.201,10.252-0.505,9.975-6.173c-0.168-3.443-2.316-6.528-4.854-9.001c-2.513-2.448-2.016-6.735,1.034-8.468
				c2.304-1.309,4.343-3.353,5.203-6.542c2.339-8.668-2.331-34.586-27.174-38.979c-2.072-0.366-4.242-2.309-4.544-4.392
				c-0.005-0.031-0.009-0.062-0.015-0.093c-0.333-2.014,0.348-4.074,1.995-5.281c3.967-2.91,9.054-8.769,4.922-18.164
				c-3.665-8.333-10.693-11.144-15.914-12.039c-3.065-0.526-5.081-3.425-4.434-6.467
				C1881.987,1033.765,1880.452,1020.489,1850.486,1024.418z"/>
			<path style="fill:#BDD0FB;" d="M1743.777,743.187l102.997-17.49c4.096-0.696,7.834,2.461,7.834,6.615v5.83
				c0,3.414-2.563,6.283-5.955,6.667l-102.997,11.66c-3.979,0.451-7.465-2.663-7.465-6.668l0,0
				C1738.191,746.529,1740.551,743.734,1743.777,743.187z"/>
			<path style="fill:#BDD0FB;" d="M1743.777,773.938l102.997-17.49c4.096-0.696,7.834,2.461,7.834,6.615v5.83
				c0,3.414-2.563,6.284-5.955,6.668l-102.997,11.66c-3.979,0.45-7.465-2.663-7.465-6.667l0,0
				C1738.191,777.281,1740.551,774.486,1743.777,773.938z"/>
			<g>
				
					<linearGradient id="SVGID_00000108987545649757552020000010140715102620348056_" gradientUnits="userSpaceOnUse" x1="1719.0577" y1="986.4067" x2="1795.6605" y2="897.4929">
					<stop  offset="0" style="stop-color:#E1473D"/>
					<stop  offset="1" style="stop-color:#E9605A"/>
				</linearGradient>
				<circle style="fill:url(#SVGID_00000108987545649757552020000010140715102620348056_);" cx="1797.208" cy="895.697" r="57.11"/>
				
					<linearGradient id="SVGID_00000049913288514193765060000003562725355214689930_" gradientUnits="userSpaceOnUse" x1="1838.946" y1="832.6424" x2="1612.4298" y2="1174.8439">
					<stop  offset="0" style="stop-color:#FE7062"/>
					<stop  offset="1" style="stop-color:#FF928E"/>
				</linearGradient>
				
					<circle style="fill:url(#SVGID_00000049913288514193765060000003562725355214689930_);" cx="1797.208" cy="895.697" r="55.211"/>
				<path style="opacity:0.65;fill:#FFFFFF;" d="M1751.68,874.721c-0.297,0-0.598-0.067-0.881-0.211
					c-0.966-0.487-1.354-1.666-0.866-2.632c9.062-17.954,27.178-29.108,47.275-29.108c3.205,0,6.417,0.289,9.545,0.859
					c1.065,0.194,1.771,1.214,1.577,2.279c-0.193,1.065-1.217,1.768-2.279,1.577c-2.898-0.528-5.873-0.796-8.843-0.796
					c-18.61,0-35.385,10.329-43.777,26.955C1753.086,874.328,1752.396,874.721,1751.68,874.721z"/>
				
					<ellipse transform="matrix(0.8837 -0.4681 0.4681 0.8837 -210.6371 946.2697)" style="opacity:0.65;fill:#FFFFFF;" cx="1798.411" cy="896.9" rx="46.729" ry="46.729"/>
				<g>
					
						<linearGradient id="SVGID_00000059312305575793403190000005531237386827847600_" gradientUnits="userSpaceOnUse" x1="1832.189" y1="842.4474" x2="1711.5735" y2="1044.9408">
						<stop  offset="0" style="stop-color:#FE7062"/>
						<stop  offset="1" style="stop-color:#FF928E"/>
					</linearGradient>
					<path style="fill:url(#SVGID_00000059312305575793403190000005531237386827847600_);" d="M1793.825,931.639v-5.084
						c-5.3-0.212-10.542-1.463-14.265-3.093c-1.33-0.582-2.007-2.074-1.625-3.474l1.292-4.735c0.474-1.737,2.363-2.636,4.024-1.94
						c3.693,1.548,8.253,2.773,13.171,2.773c5.105,0,8.911-1.731,8.911-5.278c0-3.201-2.942-5.104-10.036-7.008
						c-10.123-2.769-17.391-7.182-17.391-16.093c0-8.047,5.884-14.19,16.093-15.833v-5.085c0-1.636,1.326-2.962,2.962-2.962h2.987
						c1.636,0,2.962,1.326,2.962,2.962v4.565c4.904,0.196,8.474,1.035,11.307,2.031c1.452,0.51,2.245,2.073,1.842,3.558
						l-1.188,4.379c-0.458,1.689-2.263,2.614-3.9,1.995c-2.608-0.986-6.296-2.013-11.09-2.013c-6.057,0-7.787,2.509-7.787,4.758
						c0,2.769,3.634,4.672,11.507,7.095c11.248,3.374,15.92,8.046,15.92,16.438c0,7.7-5.71,14.622-16.785,16.353v5.689
						c0,1.636-1.326,2.962-2.962,2.962h-2.987C1795.151,934.602,1793.825,933.275,1793.825,931.639z"/>
				</g>
			</g>
			
				<linearGradient id="SVGID_00000078006848348617642340000006032055199336348821_" gradientUnits="userSpaceOnUse" x1="1754.0815" y1="602.6252" x2="1837.1686" y2="602.6252">
				<stop  offset="0" style="stop-color:#09005D"/>
				<stop  offset="1" style="stop-color:#1A0F91"/>
			</linearGradient>
			<path style="fill:url(#SVGID_00000078006848348617642340000006032055199336348821_);" d="M1795.375,683.906
				c-1.726,0-3.362-1.023-4.063-2.717c-7.535-18.238,1.08-37.926,9.635-51.229c2.607-4.055,5.443-8.03,8.186-11.875
				c6.989-9.796,13.59-19.049,16.966-29.798c5.293-16.844,1.277-36.383-10.228-49.777c-4.921-5.729-22.703-12.27-35.825-5.352
				c-11.434,6.028-27.673,27.179-7.957,101.116c0.625,2.344-0.769,4.751-3.114,5.377c-2.336,0.618-4.751-0.767-5.377-3.114
				c-20.22-75.828-4.444-102.298,12.35-111.152c16.904-8.912,38.884-1.569,46.587,7.399c13.438,15.643,18.127,38.463,11.946,58.137
				c-3.795,12.081-11.117,22.343-18.196,32.267c-2.682,3.759-5.455,7.647-7.949,11.523c-6.075,9.449-15.31,27.615-8.903,43.122
				c0.926,2.243-0.141,4.811-2.383,5.738C1796.502,683.799,1795.934,683.906,1795.375,683.906z"/>
		</g>
		<g>
			<g>
				
					<linearGradient id="SVGID_00000076576854643449972610000013754920523517187459_" gradientUnits="userSpaceOnUse" x1="-2202.8569" y1="1093.3422" x2="-2125.3821" y2="1093.3422" gradientTransform="matrix(-1 0 0 1 -1300.6926 0)">
					<stop  offset="0" style="stop-color:#FF928E"/>
					<stop  offset="1" style="stop-color:#FEB3B1"/>
				</linearGradient>
				<path style="fill:url(#SVGID_00000076576854643449972610000013754920523517187459_);" d="M874.279,1053.413
					c7.948,8.483,19.651,15.814,27.885,20.385c-12.298,15.201-28.939,30.425-50.969,45.325l-6.305,14.148l-20.201-24.211
					C824.69,1109.06,860.938,1091.021,874.279,1053.413z"/>
				
					<linearGradient id="SVGID_00000112628606935661499330000000580856320056892581_" gradientUnits="userSpaceOnUse" x1="-2124.957" y1="1491.9331" x2="-2066.863" y2="1491.9331" gradientTransform="matrix(-1 0 0 1 -1300.6926 0)">
					<stop  offset="0" style="stop-color:#09005D"/>
					<stop  offset="1" style="stop-color:#1A0F91"/>
				</linearGradient>
				<path style="fill:url(#SVGID_00000112628606935661499330000000580856320056892581_);" d="M766.171,1512.619
					c-0.007-0.433,0.022-0.871,0.133-1.313c6.543-25.941,39.018-42.098,39.018-42.098l12.869,1.009
					c7.399,22.864,6.448,36.886,5.26,43.132c-0.033,0.175-0.086,0.342-0.132,0.511
					C812.704,1514.808,790.854,1515.428,766.171,1512.619z"/>
				
					<linearGradient id="SVGID_00000029727335934610874540000013481505776045433263_" gradientUnits="userSpaceOnUse" x1="-1979.5221" y1="1423.3992" x2="-2190.8691" y2="1589.3495" gradientTransform="matrix(-1 0 0 1 -1300.6926 0)">
					<stop  offset="0" style="stop-color:#4042E2"/>
					<stop  offset="1" style="stop-color:#4F52FF"/>
				</linearGradient>
				<path style="fill:url(#SVGID_00000029727335934610874540000013481505776045433263_);" d="M823.319,1513.86
					c-0.573,2.086-2.113,3.71-4.084,4.124c-15.101,3.176-39.102,0.62-49.179-0.698c-2.223-0.291-3.848-2.347-3.885-4.668
					C790.854,1515.428,812.704,1514.808,823.319,1513.86z"/>
				
					<linearGradient id="SVGID_00000057119831727677962020000016270513244757874082_" gradientUnits="userSpaceOnUse" x1="-2108.8018" y1="1425.7958" x2="-2119.8987" y2="1522.6425" gradientTransform="matrix(-1 0 0 1 -1300.6926 0)">
					<stop  offset="0" style="stop-color:#FF928E"/>
					<stop  offset="1" style="stop-color:#FEB3B1"/>
				</linearGradient>
				<path style="fill:url(#SVGID_00000057119831727677962020000016270513244757874082_);" d="M823.366,1451.05l-5.45,26.238
					c-0.399,1.922-1.877,3.362-3.666,3.53c-2.19,0.206-5.308,0.326-8.444-0.134c-2.812-0.413-4.77-3.271-4.271-6.337l3.788-23.297
					H823.366z"/>
				
					<linearGradient id="SVGID_00000008115806213213486930000005763390684132089245_" gradientUnits="userSpaceOnUse" x1="-1941.9773" y1="1471.214" x2="-2153.325" y2="1637.1648" gradientTransform="matrix(-1 0 0 1 -1300.6926 0)">
					<stop  offset="0" style="stop-color:#4042E2"/>
					<stop  offset="1" style="stop-color:#4F52FF"/>
				</linearGradient>
				<path style="fill:url(#SVGID_00000008115806213213486930000005763390684132089245_);" d="M710.439,1513.597
					c14.213-0.398,21.564-2.072,25.364-3.625c0.009,1.413,0.001,2.851-0.045,4.341c-0.049,1.592-1.228,2.863-2.678,2.854
					l-78.036-0.504c-2.49-0.016-3.946-2.905-2.866-5.188C662.409,1512.32,688.469,1514.211,710.439,1513.597z"/>
				
					<linearGradient id="SVGID_00000169549272986200062100000005363258395141905290_" gradientUnits="userSpaceOnUse" x1="-2036.4952" y1="1493.4784" x2="-1952.87" y2="1493.4784" gradientTransform="matrix(-1 0 0 1 -1300.6926 0)">
					<stop  offset="0" style="stop-color:#09005D"/>
					<stop  offset="1" style="stop-color:#1A0F91"/>
				</linearGradient>
				<path style="fill:url(#SVGID_00000169549272986200062100000005363258395141905290_);" d="M652.177,1511.475
					c0.094-0.199,0.175-0.401,0.309-0.588c6.892-9.63,24.445-28.805,59.129-37.121l16.639-0.526c0,0,7.409,12.878,7.549,36.732
					c-3.8,1.553-11.151,3.227-25.364,3.625C688.469,1514.211,662.409,1512.32,652.177,1511.475z"/>
				
					<linearGradient id="SVGID_00000152944016628747225680000004729023833971376831_" gradientUnits="userSpaceOnUse" x1="-2018.4087" y1="1436.1533" x2="-2029.5056" y2="1532.9998" gradientTransform="matrix(-1 0 0 1 -1300.6926 0)">
					<stop  offset="0" style="stop-color:#FF928E"/>
					<stop  offset="1" style="stop-color:#FEB3B1"/>
				</linearGradient>
				<path style="fill:url(#SVGID_00000152944016628747225680000004729023833971376831_);" d="M731.339,1448.023
					c-0.185,1.24-2.465,20.09-3.348,27.399c-0.21,1.737-1.468,3.081-3.054,3.27c-2.833,0.338-7.418,0.647-11.429-0.176
					c-2.164-0.444-3.73-2.522-3.73-4.94v-29.589L731.339,1448.023z"/>
				
					<linearGradient id="SVGID_00000085947968913058617920000014533568036794493313_" gradientUnits="userSpaceOnUse" x1="756.6034" y1="1456.0706" x2="836.6038" y2="884.0709">
					<stop  offset="0" style="stop-color:#4042E2"/>
					<stop  offset="1" style="stop-color:#4F52FF"/>
				</linearGradient>
				<path style="fill:url(#SVGID_00000085947968913058617920000014533568036794493313_);" d="M744.688,1104.016
					c0,0-40.132,152.516-39.407,344.443c0.013,3.499,2.47,6.519,5.895,7.24c5.046,1.063,12.463,2.325,18.604,2.152
					c3.278-0.092,6.018-2.523,6.57-5.755c5.627-33,37.92-218.903,56.319-249.084c0,0,12.105,165.574,8.236,251.475
					c-0.096,2.136,1.468,3.989,3.592,4.234c3.222,0.373,8.376,0.655,14.936-0.042c2.49-0.264,4.498-2.146,4.854-4.625
					c4.008-27.929,27.078-194.169,26.098-313.923c-0.056-6.753-17.859-36.116-17.859-36.116H744.688z"/>
				
					<linearGradient id="SVGID_00000097497474744899352040000012910421962703405719_" gradientUnits="userSpaceOnUse" x1="-2868.0378" y1="557.0585" x2="-2876.0378" y2="753.0585" gradientTransform="matrix(-1 0 0 1 -2068.4612 0)">
					<stop  offset="0" style="stop-color:#09005D"/>
					<stop  offset="1" style="stop-color:#1A0F91"/>
				</linearGradient>
				<path style="fill:url(#SVGID_00000097497474744899352040000012910421962703405719_);" d="M699.601,917.475
					c6.666-12.595,6.802-15.822,8.624-30.044c49.92-36.024,125.09-17.79,154.167-14.127c9.534,1.201,18.254,5.901,24.537,13.172
					c24.916,28.834,79.59,107.776,15.237,187.322c-8.235-4.571-19.938-11.902-27.885-20.385c7.12-20.07,7.703-45.718-7.218-77.169
					c-0.51,2.493-1.14,4.961-1.906,7.39c-20.565,65.153-21.662,119.369-21.617,131.865c0.007,1.697-1.012,3.224-2.588,3.856
					c-27.066,10.846-79.167,4.391-96.657,1.785c-3.207-0.478-5.364-3.463-4.921-6.675
					C747.956,1052.277,694.828,926.492,699.601,917.475z"/>
				
					<linearGradient id="SVGID_00000153700666678306871380000012252723994033765527_" gradientUnits="userSpaceOnUse" x1="-2084.2861" y1="806.6815" x2="-2126.6565" y2="989.7818" gradientTransform="matrix(-1 0 0 1 -1300.6926 0)">
					<stop  offset="0" style="stop-color:#FF928E"/>
					<stop  offset="1" style="stop-color:#FEB3B1"/>
				</linearGradient>
				<path style="fill:url(#SVGID_00000153700666678306871380000012252723994033765527_);" d="M815.61,820.94l5.216,53.295
					c0,0-29.982,9.031-51.788-6.356l15.329-48.437L815.61,820.94z"/>
				<g>
					
						<linearGradient id="SVGID_00000008127478756933524000000008663572065642288555_" gradientUnits="userSpaceOnUse" x1="694.3304" y1="757.469" x2="828.3303" y2="814.469">
						<stop  offset="0" style="stop-color:#FF928E"/>
						<stop  offset="1" style="stop-color:#FEB3B1"/>
					</linearGradient>
					<path style="fill:url(#SVGID_00000008127478756933524000000008663572065642288555_);" d="M780.821,760.196
						c-0.721,0.679-30.453,59.066-30.453,59.066l33.699,16.268l36.402-51.152C820.468,784.378,792.901,748.824,780.821,760.196z"/>
					
						<linearGradient id="SVGID_00000181046274224638370620000010039181198709861793_" gradientUnits="userSpaceOnUse" x1="-2962.6826" y1="-2731.9934" x2="-2872.8904" y2="-2731.9934" gradientTransform="matrix(-0.6854 -0.7281 -0.7281 0.6854 -3207.2119 544.7815)">
						<stop  offset="0" style="stop-color:#09005D"/>
						<stop  offset="1" style="stop-color:#1A0F91"/>
					</linearGradient>
					<path style="fill:url(#SVGID_00000181046274224638370620000010039181198709861793_);" d="M805.558,785.794
						c0.601,1.555,0.453,3.291-0.404,4.721l-16.807,28.017c-0.255,0.425-0.559,0.809-0.922,1.147
						c-2.001,1.862-8.846,7.279-14.139-0.096c-4.51-6.285-8.742-12-13.277-14.357c-2.648-1.376-5.907-0.277-7.251,2.387
						c-2.769,5.488-8.133,16.676-11.503,27.285c-0.844,2.659,0.528,5.514,3.114,6.561c6.823,2.765,20.31,7.764,32.277,9.416
						c1.966,0.271,3.912-0.558,5.082-2.161c5.149-7.053,19.661-26.765,24.613-31.699c4.601-4.584,13.094-2.855,16.92-1.756
						c1.453,0.417,2.999,0.216,4.294-0.563c3.883-2.339,10.658-8.162,4.46-18.022c-1.541-2.451-0.755-5.717,1.664-7.308
						c4.334-2.852,9.038-8.204,4.557-16.871c-4.537-8.775-12.638-9.562-18.156-8.888c-2.441,0.299-4.92-0.982-5.856-3.256
						c-0.417-1.012-1.24-1.874-2.774-2.185c-2.892-0.587-4.79-3.231-4.223-6.127c0.973-4.965,0.24-11.416-7.687-15.774
						c-14.54-7.994-27.276,5.032-30.515,16.028c-3.238,10.996,13.018,18.767,23.245,20.064
						C799.782,773.311,803.901,781.509,805.558,785.794z"/>
					
						<linearGradient id="SVGID_00000089548350488378499180000011015834119562793101_" gradientUnits="userSpaceOnUse" x1="-3015.3689" y1="-2677.1226" x2="-2955.0759" y2="-2738.9814" gradientTransform="matrix(-0.6854 -0.7281 -0.7281 0.6854 -3207.2119 544.7815)">
						<stop  offset="0" style="stop-color:#FF928E"/>
						<stop  offset="1" style="stop-color:#FEB3B1"/>
					</linearGradient>
					<path style="fill:url(#SVGID_00000089548350488378499180000011015834119562793101_);" d="M800.029,827.306
						c0,0,6.466-18.918,14.742-18.224c8.276,0.694,14.79,8.939,4.533,18.207C806.545,838.819,800.029,827.306,800.029,827.306z"/>
				</g>
				
					<linearGradient id="SVGID_00000183932944403651284990000005610130883942242194_" gradientUnits="userSpaceOnUse" x1="920.4868" y1="765.418" x2="895.4868" y2="854.4179">
					<stop  offset="0" style="stop-color:#09005D"/>
					<stop  offset="1" style="stop-color:#1A0F91"/>
				</linearGradient>
				<path style="fill:url(#SVGID_00000183932944403651284990000005610130883942242194_);" d="M869.79,971.371
					c10.909-29.854,6.952-65.904,6.91-66.265l-3.006,0.343c0.04,0.354,3.913,35.712-6.747,64.883L869.79,971.371z"/>
				
					<linearGradient id="SVGID_00000094613107050956023820000016607545610070211237_" gradientUnits="userSpaceOnUse" x1="-2085.6062" y1="1141.1718" x2="-2115.3667" y2="1194.1355" gradientTransform="matrix(-1 0 0 1 -1300.6926 0)">
					<stop  offset="0" style="stop-color:#09005D"/>
					<stop  offset="1" style="stop-color:#1A0F91"/>
				</linearGradient>
				<path style="fill:url(#SVGID_00000094613107050956023820000016607545610070211237_);" d="M794.143,1199.125
					c0.672,0,1.287-0.451,1.463-1.134c3.328-12.836,28.249-26.942,28.5-27.083c0.729-0.409,0.989-1.331,0.579-2.06
					c-0.409-0.729-1.327-0.989-2.06-0.579c-1.071,0.601-26.298,14.881-29.948,28.963c-0.21,0.809,0.276,1.635,1.085,1.844
					C793.889,1199.109,794.018,1199.125,794.143,1199.125z"/>
				
					<linearGradient id="SVGID_00000176749833125125374450000009987900872502384529_" gradientUnits="userSpaceOnUse" x1="713.2756" y1="547.0729" x2="705.2756" y2="743.0728">
					<stop  offset="0" style="stop-color:#09005D"/>
					<stop  offset="1" style="stop-color:#1A0F91"/>
				</linearGradient>
				<path style="fill:url(#SVGID_00000176749833125125374450000009987900872502384529_);" d="M708.347,886.862
					c0,0-32.8,45.92-39.36,104.959c-6.56,59.04,4.373,54.666,26.24,43.733c21.867-10.933,28.427-80.906,28.427-80.906
					L708.347,886.862z"/>
			</g>
			
				<linearGradient id="SVGID_00000161620472658899329160000012024661912424821943_" gradientUnits="userSpaceOnUse" x1="382.1294" y1="1339.4995" x2="584.8011" y2="1339.4995">
				<stop  offset="0" style="stop-color:#09005D"/>
				<stop  offset="1" style="stop-color:#1A0F91"/>
			</linearGradient>
			<path style="fill:url(#SVGID_00000161620472658899329160000012024661912424821943_);" d="M464.535,1172.22l10.794,302.228
				c0.081,2.258-1.471,4.249-3.68,4.723l-85.83,18.392c-1.384,0.297-2.558,1.206-3.191,2.472l0,0
				c-1.549,3.098,0.704,6.743,4.168,6.743h193.346c2.574,0,4.66-2.086,4.66-4.66v-0.284c0-2.214-1.557-4.122-3.726-4.565
				l-88.734-18.15c-2.181-0.446-3.742-2.372-3.726-4.599l2.159-302.301H464.535z"/>
			
				<linearGradient id="SVGID_00000070798598113387331240000005959191424522140095_" gradientUnits="userSpaceOnUse" x1="581.6904" y1="778.6479" x2="418.4206" y2="1198.4846">
				<stop  offset="0" style="stop-color:#4042E2"/>
				<stop  offset="1" style="stop-color:#4F52FF"/>
			</linearGradient>
			<path style="fill:url(#SVGID_00000070798598113387331240000005959191424522140095_);" d="M460.162,827.18v0.071
				c0,2.232-1.593,4.145-3.788,4.55l-34.26,6.319c-1.742,0.321-3.147,1.608-3.62,3.315l-16.089,58.053
				c-2.283,8.236-2.638,16.887-1.039,25.283l21.495,112.848c1.396,7.326-0.222,14.89-4.497,21
				c-12.015,17.172-35.054,57.967-27.816,110.343c0.864,6.256,5.162,11.517,11.134,13.572c22.007,7.573,80.628,22.471,155.096-0.313
				c6.748-2.065,11.423-8.206,11.762-15.254c0.892-18.589-1.136-57.86-25.492-108.804c-2.649-5.54-3.442-11.795-2.162-17.801
				l23.466-110.109c1.94-9.102,1.567-18.546-1.086-27.467l-19.099-64.242c-0.549-1.846-2.184-3.159-4.105-3.297l-23.122-1.651
				c-2.421-0.173-4.297-2.188-4.297-4.615l0,0c0-2.48-1.956-4.52-4.435-4.623l-43.225-1.801
				C462.353,822.447,460.162,824.549,460.162,827.18z"/>
			
				<linearGradient id="SVGID_00000047777560906515423060000007120107968634581172_" gradientUnits="userSpaceOnUse" x1="808.3548" y1="918.787" x2="475.9836" y2="1230.7494">
				<stop  offset="0" style="stop-color:#FE7062"/>
				<stop  offset="1" style="stop-color:#FF928E"/>
			</linearGradient>
			<path style="fill:url(#SVGID_00000047777560906515423060000007120107968634581172_);" d="M420.802,833.289
				c0,0,13.12-13.12,21.867-6.56c8.746,6.56,34.986,74.346,76.533,96.213c41.546,21.867,107.146-2.187,155.252-21.867
				c48.107-19.68,161.813,104.959,183.679,212.105c15.918,77.997,14.455,151.359,12.48,185.503
				c-0.729,12.609-9.521,23.326-21.781,26.361c-17.418,4.312-43.131,7.976-65.045,0.242c-8.104-2.86-14.752-4.265-20.195-4.714
				c-14.079-1.161-25.143-12.528-26.19-26.616L712.059,952.81c-0.405-5.445-4.576-10.088-10.02-10.507
				c-3.978-0.306-8.53,1.568-12.279,9.065c-8.746,17.493-45.92,107.146-126.826,111.519
				c-80.906,4.373-153.066-91.84-159.626-102.773c-6.56-10.933,0.806-20.915,0.806-20.915l2.371,12.449
				C406.486,951.649,451.415,946.995,420.802,833.289z"/>
			
				<linearGradient id="SVGID_00000001626641367484716170000012902678819921667773_" gradientUnits="userSpaceOnUse" x1="1069.8955" y1="719.0632" x2="893.8953" y2="1003.063">
				<stop  offset="0" style="stop-color:#E1473D"/>
				<stop  offset="1" style="stop-color:#E9605A"/>
			</linearGradient>
			<path style="fill:url(#SVGID_00000001626641367484716170000012902678819921667773_);" d="M757.547,988.542
				c13.12,30.613,15.307,56.853,21.867,120.266c5.031,48.633,11.347,166.711,14.019,219.114c17.982,3.7,37.243,1.268,51.832-2.034
				c-3.267-45.028-10.459-136.318-19.932-210.521C812.213,1012.595,744.427,957.928,757.547,988.542z"/>
			
				<linearGradient id="SVGID_00000182523384505526922290000004561780267760454791_" gradientUnits="userSpaceOnUse" x1="833.3464" y1="1062.6406" x2="850.5378" y2="1120.9005">
				<stop  offset="0" style="stop-color:#FF928E"/>
				<stop  offset="1" style="stop-color:#FEB3B1"/>
			</linearGradient>
			<path style="fill:url(#SVGID_00000182523384505526922290000004561780267760454791_);" d="M864.323,1092.408
				c0,0-9.863-19.68-14.794-15.307c-4.931,4.373-31.232,10.933-29.589,15.307c1.644,4.373,39.452,30.715,44.383,26.291
				C869.255,1114.274,864.323,1092.408,864.323,1092.408z"/>
			
				<linearGradient id="SVGID_00000158735479778136365140000002485047064854751129_" gradientUnits="userSpaceOnUse" x1="692.3322" y1="896.45" x2="709.1093" y2="953.3056">
				<stop  offset="0" style="stop-color:#FF928E"/>
				<stop  offset="1" style="stop-color:#FEB3B1"/>
			</linearGradient>
			<path style="fill:url(#SVGID_00000158735479778136365140000002485047064854751129_);" d="M699.601,948.088
				c-4.639-4.638-10.933-2.186-10.933-10.933s13.12-28.426,19.68-26.24c6.56,2.187,7.896,10.914,11.601,27.324
				C723.654,954.648,710.534,959.022,699.601,948.088z"/>
		</g>
		<g>
			
				<linearGradient id="SVGID_00000070836752515714460230000013055334506075384203_" gradientUnits="userSpaceOnUse" x1="-3846.7532" y1="829.3745" x2="-3816.5317" y2="905.1844" gradientTransform="matrix(-1 0 0 1 -2659.0112 0)">
				<stop  offset="0" style="stop-color:#09005D"/>
				<stop  offset="1" style="stop-color:#1A0F91"/>
			</linearGradient>
			<path style="fill:url(#SVGID_00000070836752515714460230000013055334506075384203_);" d="M1169.823,870.154
				c0,0-10.188,4.956-12.062,10.649c-1.503,4.568-12.769,5.156-13.882,14.14c-0.574,4.638-4.007,8.353-8.626,9.061
				c-11.506,1.763-29.238,7.738-32.075,27.715c-2.166,15.248,5.608,21.03,13.766,23.031c5.992,1.47,9.974,7.298,8.762,13.347
				c-1.162,5.802,0.571,12.509,10.623,17.813c22.525,11.886,45.02-28.158,45.02-28.158l4.61-69.919L1169.823,870.154z"/>
			
				<linearGradient id="SVGID_00000152260113339759671620000014496040655220537279_" gradientUnits="userSpaceOnUse" x1="-4026.5645" y1="312.9125" x2="-3970.7327" y2="439.942" gradientTransform="matrix(-0.9776 -0.2106 -0.2106 0.9776 -2611.666 -266.7475)">
				<stop  offset="0" style="stop-color:#FF928E"/>
				<stop  offset="1" style="stop-color:#FEB3B1"/>
			</linearGradient>
			<path style="fill:url(#SVGID_00000152260113339759671620000014496040655220537279_);" d="M1292.389,853.578
				c0,0-44.975,71.137-98.455,84.878c0,0,10.421,29.68,18.464,33.077c0,0,65.795-54.899,82.704-107.846L1292.389,853.578z"/>
			
				<linearGradient id="SVGID_00000102546015498923383480000005726258088116846766_" gradientUnits="userSpaceOnUse" x1="-3709.3882" y1="956.5864" x2="-3716.3882" y2="1134.5859" gradientTransform="matrix(-1 0 0 1 -2659.0112 0)">
				<stop  offset="0" style="stop-color:#09005D"/>
				<stop  offset="1" style="stop-color:#1A0F91"/>
			</linearGradient>
			<path style="fill:url(#SVGID_00000102546015498923383480000005726258088116846766_);" d="M1077.235,1308.572l-1.458,11.983
				c-0.276,2.273-2.066,4.071-4.341,4.331c-3.841,0.439-10.006,0.889-16.037,0.251c-2.648-0.28-4.366-2.961-3.56-5.498
				c1.47-4.626,4.16-11.57,8.038-15.656h13.293C1075.627,1303.982,1077.531,1306.132,1077.235,1308.572z"/>
			
				<linearGradient id="SVGID_00000067214826783375938150000000147400902293552318_" gradientUnits="userSpaceOnUse" x1="-3844.5623" y1="1415.775" x2="-3807.6836" y2="984.7565" gradientTransform="matrix(-1 0 0 1 -2659.0112 0)">
				<stop  offset="0" style="stop-color:#FF928E"/>
				<stop  offset="1" style="stop-color:#FEB3B1"/>
			</linearGradient>
			<path style="fill:url(#SVGID_00000067214826783375938150000000147400902293552318_);" d="M1181.348,1168.201l2.244,13.198
				c0,0-7.513,76.104-8.85,106.546c-0.209,4.773,1.025,9.489,3.53,13.557l13.065,21.215l-33.203-19.593l-0.661-4.052l5.435-7.473
				l-7.12-85.256c-0.418-5.008,0.615-10.031,2.977-14.468l6.868-12.902L1181.348,1168.201z"/>
			
				<linearGradient id="SVGID_00000139251963448213826050000011215840782590634659_" gradientUnits="userSpaceOnUse" x1="-3820.3833" y1="952.2227" x2="-3827.3833" y2="1130.2224" gradientTransform="matrix(-1 0 0 1 -2659.0112 0)">
				<stop  offset="0" style="stop-color:#09005D"/>
				<stop  offset="1" style="stop-color:#1A0F91"/>
			</linearGradient>
			<path style="fill:url(#SVGID_00000139251963448213826050000011215840782590634659_);" d="M1193.523,1325.79h-10.596
				c-1.984,0-3.854-0.911-5.063-2.482c-3.303-4.292-10.147-12.666-13.42-12.885c-4.405-0.294-3.842,15.367-3.842,15.367h-2.469
				l-3.128-19.461c-0.787-4.896,1.648-9.747,6.045-12.041l0,0c0,0,1.007,7.447,6.467,10.742c5.46,3.294,22.22,15.091,22.22,15.091
				s2.053-0.293,4.307,0.115C1197.387,1320.839,1196.92,1325.79,1193.523,1325.79z"/>
			
				<linearGradient id="SVGID_00000132766156426672099550000001914173975678258838_" gradientUnits="userSpaceOnUse" x1="-3770.3787" y1="1422.1885" x2="-3733.4905" y2="991.0562" gradientTransform="matrix(-1 0 0 1 -2659.0112 0)">
				<stop  offset="0" style="stop-color:#FF928E"/>
				<stop  offset="1" style="stop-color:#FEB3B1"/>
			</linearGradient>
			<path style="fill:url(#SVGID_00000132766156426672099550000001914173975678258838_);" d="M1135.87,1174.469
				c0,0-44.016,83.493-51.012,102.556c-6.997,19.063-9.448,34.965-9.542,36.472c-0.147,2.353-3.073,4.61-11.141,4.61
				c-4.163,0-6.203-1.669-7.201-3.284c-0.852-1.378-0.896-3.103-0.178-4.555c2.546-5.153,10.626-21.62,13.619-29.088
				c3.573-8.917,11.258-49.328,15.473-63.379c4.215-14.051,8.979-29.292,27.334-43.331
				C1113.222,1174.469,1125.822,1162.128,1135.87,1174.469z"/>
			
				<linearGradient id="SVGID_00000026159494799204440670000007864034065372727696_" gradientUnits="userSpaceOnUse" x1="-3843.6514" y1="981.119" x2="-3825.2112" y2="1152.2035" gradientTransform="matrix(-1 0 0 1 -2659.0112 0)">
				<stop  offset="0" style="stop-color:#4042E2"/>
				<stop  offset="1" style="stop-color:#4F52FF"/>
			</linearGradient>
			<path style="fill:url(#SVGID_00000026159494799204440670000007864034065372727696_);" d="M1163.676,1037.661
				c11.354-48.112-17.409-75.323-17.409-75.323c18.149-17.421,51.216-25.348,51.216-25.348s31.553,23.068,27.81,41.124
				c-2.194,10.583-22.179,63.388-22.179,63.388S1184.634,1050.248,1163.676,1037.661z"/>
			
				<linearGradient id="SVGID_00000041981468281651247970000013511576728038470058_" gradientUnits="userSpaceOnUse" x1="-3742.0737" y1="989.518" x2="-3834.2754" y2="1137.0404" gradientTransform="matrix(-1 0 0 1 -2659.0112 0)">
				<stop  offset="0" style="stop-color:#4042E2"/>
				<stop  offset="1" style="stop-color:#4F52FF"/>
			</linearGradient>
			<path style="fill:url(#SVGID_00000041981468281651247970000013511576728038470058_);" d="M1138.502,1061.479
				c4.621-13.92,25.174-23.819,25.174-23.819c20.958,12.588,39.438,3.842,39.438,3.842s4.144,15.841,1.284,30.563
				c-2.86,14.721-20.807,109.333-20.807,109.333c-28.277,5.73-71.767-5.765-71.767-5.765
				C1129.836,1143.656,1133.881,1075.4,1138.502,1061.479z"/>
			
				<linearGradient id="SVGID_00000000940846862149165960000014469723466205264041_" gradientUnits="userSpaceOnUse" x1="1182.9541" y1="912.2991" x2="1169.9542" y2="1027.2993">
				<stop  offset="0" style="stop-color:#FF928E"/>
				<stop  offset="1" style="stop-color:#FEB3B1"/>
			</linearGradient>
			<path style="fill:url(#SVGID_00000000940846862149165960000014469723466205264041_);" d="M1176.855,905.196l-9.231,41.464
				c-0.884,3.652,2.446,3.055,6.138,2.358c6.047-1.14,13.841-3.488,16.446-8.193c0.265-0.479,0.397-1.02,0.472-1.563l3.966-28.752
				c0.315-2.281-0.918-4.495-3.023-5.428l-7.653-3.393C1181.023,900.382,1177.613,902.063,1176.855,905.196z"/>
			<g>
				
					<linearGradient id="SVGID_00000037677336305409260440000011994442094249847460_" gradientUnits="userSpaceOnUse" x1="-3949.3838" y1="313.2125" x2="-3958.3838" y2="389.2123" gradientTransform="matrix(-0.9809 -0.1943 -0.1943 0.9809 -2618.2463 -238.991)">
					<stop  offset="0" style="stop-color:#FF928E"/>
					<stop  offset="1" style="stop-color:#FEB3B1"/>
				</linearGradient>
				<path style="fill:url(#SVGID_00000037677336305409260440000011994442094249847460_);" d="M1194.536,867.397
					c0,0,9.828,6.652,14.05,23.594c4.223,16.941-2.64,23.018-9.675,22.646c-7.035-0.372-17.234-2.548-26.071-14.702
					C1164.003,886.781,1181.658,859.268,1194.536,867.397z"/>
				
					<linearGradient id="SVGID_00000134232346322911919840000003878860793474398883_" gradientUnits="userSpaceOnUse" x1="-3961.6536" y1="310.6455" x2="-3931.4309" y2="386.4585" gradientTransform="matrix(-0.9809 -0.1943 -0.1943 0.9809 -2618.2463 -238.991)">
					<stop  offset="0" style="stop-color:#09005D"/>
					<stop  offset="1" style="stop-color:#1A0F91"/>
				</linearGradient>
				<path style="fill:url(#SVGID_00000134232346322911919840000003878860793474398883_);" d="M1181.752,892.102
					c0,0-3.601-24.275,16.554-20.562l4.075,4.243c0,0,9.865-11.11-1.052-19.508c-10.917-8.398-26.067-6.247-34.448,9.041
					c-8.381,15.289-11.423,26.032-4.398,35.533c7.025,9.5,12.31,1.352,12.31,1.352s-3.222-8.223-0.549-11.751
					c2.674-3.528,6.123,2.052,6.123,2.052L1181.752,892.102z"/>
				
					<linearGradient id="SVGID_00000075882130760486014960000002811925721549997206_" gradientUnits="userSpaceOnUse" x1="-3932.8235" y1="315.1735" x2="-3941.8235" y2="391.1735" gradientTransform="matrix(-0.9809 -0.1943 -0.1943 0.9809 -2618.2463 -238.991)">
					<stop  offset="0" style="stop-color:#FF928E"/>
					<stop  offset="1" style="stop-color:#FEB3B1"/>
				</linearGradient>
				<path style="fill:url(#SVGID_00000075882130760486014960000002811925721549997206_);" d="M1178.998,894.18
					c0,0-1.777-12.489-8.156-8.919c-6.378,3.57,2.299,11.667,5.778,14.422L1178.998,894.18z"/>
			</g>
			<g>
				
					<linearGradient id="SVGID_00000106832128341575926940000016878706667779205566_" gradientUnits="userSpaceOnUse" x1="-4037.5977" y1="317.7621" x2="-3981.7661" y2="444.792" gradientTransform="matrix(-0.9776 -0.2106 -0.2106 0.9776 -2611.666 -266.7475)">
					<stop  offset="0" style="stop-color:#FF928E"/>
					<stop  offset="1" style="stop-color:#FEB3B1"/>
				</linearGradient>
				<path style="fill:url(#SVGID_00000106832128341575926940000016878706667779205566_);" d="M1292.08,868.223
					c0.136,1.467-5.321,2.482-7.057-3.774c0.477-2.716,1.325-14.609,3.408-16.457c11.091-9.841,30.869-20.912,30.869-20.912
					c2.212,3.377-0.689,5.602-0.689,5.602l-9.873,6.663c1.03,3.411,2.533,6.427,2.703,10.321c0.129,2.949-0.96,5.836-2.918,8.073
					c-1.965,2.245-4.61,5.144-6.994,7.344C1297.015,869.248,1292.08,868.223,1292.08,868.223z"/>
				
					<linearGradient id="SVGID_00000027587565808883268080000015594071446985525645_" gradientUnits="userSpaceOnUse" x1="1308.3562" y1="701.4954" x2="1301.3562" y2="807.4952">
					<stop  offset="0" style="stop-color:#FF928E"/>
					<stop  offset="1" style="stop-color:#FEB3B1"/>
				</linearGradient>
				<path style="fill:url(#SVGID_00000027587565808883268080000015594071446985525645_);" d="M1297.595,863.437l-1.812-0.744
					c0.503-1.229,4.989-12.071,7.263-14.447c0.825-0.862,1.242-1.62,1.207-2.192c-0.017-0.27-0.142-0.542-0.38-0.822l-7.839,4.192
					l-3.505,5.488l-1.651-1.054l3.78-5.92l9.492-5.075l0.506,0.413c0.984,0.804,1.491,1.673,1.553,2.659
					c0.071,1.163-0.5,2.362-1.747,3.666C1302.753,851.385,1298.926,860.193,1297.595,863.437z"/>
			</g>
			
				<linearGradient id="SVGID_00000083790517833771518620000015353736519140065173_" gradientUnits="userSpaceOnUse" x1="1301.8247" y1="1030.084" x2="1424.8528" y2="1030.084" gradientTransform="matrix(1 0 0 1 -257.5779 0)">
				<stop  offset="0" style="stop-color:#FF928E"/>
				<stop  offset="1" style="stop-color:#FEB3B1"/>
			</linearGradient>
			<path style="fill:url(#SVGID_00000083790517833771518620000015353736519140065173_);" d="M1146.267,962.338
				c0,0-51.103,104.925-69.61,114.097c0,0-18.791,1.963-30.29,5.441c-2.893,0.875-2.796,4.983,0.12,5.778
				c8.008,2.184,21.277,4.01,33.436-2.591c0,0-6.532,9.791-2.722,13.605c0,0,8.709-10.339,11.975-13.605
				c2.875-2.875,55.208-59.93,77.21-94.338c1.777-2.78,0.544-11.042-0.691-14.102
				C1162.853,969.581,1156.547,958.337,1146.267,962.338z"/>
		</g>
	</g>
</g>
</svg>
